<svg xmlns="http://www.w3.org/2000/svg" width="256" height="256"><path fill-opacity=".016" d="M0 128.004v128.004l128.25-.254 128.25-.254.254-127.75L257.008 0H0v128.004m.485.496c0 70.4.119 99.053.265 63.672.146-35.38.146-92.98 0-128C.604 29.153.485 58.1.485 128.5" fill="#1976D2" fill-rule="evenodd"/><path fill-opacity=".378" d="M198.762 2.942C186.804 6.765 177.176 15.307 171.647 27c-2.559 5.412-3.14 8.026-3.474 15.618l-.4 9.118-46.13 24.523-46.131 24.523-3.608-2.858c-7.094-5.619-17.819-9.835-25.182-9.9L43.944 88l.278 13.71.278 13.711 3.135.64c10.333 2.109 15.6 14.411 10.247 23.935C55.66 143.95 49.705 148 46.114 148c-2.052 0-2.114.413-2.114 14.114v14.113l4.55-.682c7.832-1.175 14.108-3.45 19.474-7.061 2.847-1.916 5.342-3.484 5.543-3.484.202 0 14.728 8.782 32.281 19.516l31.915 19.515.405 9.235c.34 7.738.912 10.316 3.533 15.914 17.098 36.515 70.208 33.266 82.294-5.035 6.248-19.803-2.052-40.378-21.238-52.645-1.386-.886-.737-5.216 5.697-38 3.994-20.35 7.558-38.618 7.92-40.594.621-3.392.962-3.663 6.027-4.797 14.195-3.176 27.128-15.496 31.704-30.2 10.382-33.357-22.081-65.6-55.343-54.967m7.239 27.181c-12.324 4.914-13.456 23.033-1.811 28.974 10.147 5.177 22.332-1.17 23.485-12.233 1.19-11.43-11.129-20.946-21.674-16.741M132.5 99.216l-45 24.036v20.207l30.803 18.839 30.803 18.839 3.911-3.533c4.638-4.191 11.985-8.072 18.277-9.656 3.289-.829 4.684-1.735 5.068-3.296 1.15-4.671 15.606-80.011 15.38-80.153a901.29 901.29 0 0 0-3.759-2.263c-1.934-1.161-4.6-3.264-5.924-4.674-1.324-1.409-2.892-2.521-3.483-2.472-.592.05-21.326 10.907-46.076 24.126m41.718 97.39c-4.94 2.521-7.555 6.873-8.006 13.329-.321 4.594.019 6.16 1.949 8.973 5.353 7.8 12.963 9.957 20.839 5.907 4.84-2.49 9-8.876 9-13.815 0-3.621-3.988-11.01-7.209-13.356-3.705-2.699-12.266-3.235-16.573-1.038" fill="#1976D2" fill-rule="evenodd"/><path fill-opacity=".212" d="M212 14.45v13.473l4.19 1.128c15.881 4.276 16.386 26.11.733 31.67L212 62.469V89.272l-4.75-.645c-2.613-.355-6.917-1.362-9.565-2.238-2.648-.876-4.961-1.434-5.14-1.241-.18.194-3.894 18.69-8.254 41.102L176.364 167h5.744l-.304 13.477-.304 13.477 3 .644c8.344 1.789 13.5 7.798 13.5 15.733 0 8.776-4.843 15.12-12.49 16.361l-3.51.57v27.965l4.75-.703c20.037-2.965 34.878-17.24 38.289-36.828 1.408-8.081.103-17.428-3.556-25.477-2.719-5.98-11.75-15.971-16.987-18.791-1.923-1.036-3.496-2.225-3.496-2.643 0-.774 14.587-76.515 15.488-80.42.375-1.627 1.507-2.287 4.759-2.775 20.915-3.136 37.378-27.007 33.778-48.977-3.205-19.558-18.5-34.166-38.775-37.035L212 .976V14.45m-87.5 60.657a75402.296 75402.296 0 0 0-45.735 24.455l-2.736 1.474 3.479 4.842c1.913 2.663 4.503 7.568 5.756 10.9l2.277 6.058 44.482-23.668c24.465-13.017 45.009-24.011 45.654-24.43.823-.536.145-2.287-2.283-5.895-1.9-2.823-4.228-7.767-5.174-10.987-.946-3.219-1.945-5.826-2.22-5.792-.275.034-19.85 10.403-43.5 23.043m-40.398 74.465c-1.319 3.046-4.12 7.701-6.224 10.344l-3.826 4.805 32.17 19.636 32.169 19.635 1.815-5.91c.997-3.251 3.396-8.262 5.331-11.136 1.934-2.875 3.387-5.356 3.228-5.514-.853-.853-61.107-37.429-61.636-37.415-.346.009-1.708 2.509-3.027 5.555" fill="#1976D2" fill-rule="evenodd"/><path fill-opacity=".488" d="m121.316 77.106-45.184 24.028 3.802 5.024c2.092 2.763 4.634 7.469 5.65 10.457 1.384 4.073 2.231 5.289 3.381 4.856 1.356-.511 88.128-46.386 88.802-46.949.147-.123-1.333-2.878-3.289-6.122-1.956-3.245-4.142-7.901-4.857-10.346-.714-2.446-1.709-4.566-2.21-4.711-.501-.145-21.244 10.548-46.095 23.763m71.136 9.271c-.449 1.298-15.452 78.92-15.452 79.942 0 .375 2.363.686 5.25.693 4.653.01 12.39 1.578 16.784 3.4 1.295.537 2.739-5.631 9.279-39.638 4.259-22.151 7.732-40.612 7.716-41.024-.016-.412-2.841-.765-6.279-.783-3.437-.018-8.648-.861-11.58-1.873-3.695-1.276-5.449-1.496-5.718-.717M84.225 150.333c-1.651 3.527-4.577 8.158-6.502 10.29l-3.5 3.877 31.074 19c17.091 10.45 31.397 19.135 31.791 19.301.395.165 1.453-1.914 2.352-4.621.9-2.708 3.193-7.51 5.098-10.672 1.904-3.163 3.462-5.881 3.462-6.04 0-.16-12.713-8.055-28.25-17.544-15.537-9.49-29.212-17.873-30.387-18.63-2.036-1.311-2.278-1.073-5.138 5.039" fill="#1976D2" fill-rule="evenodd"/></svg>