<?xml version="1.0" encoding="iso-8859-1"?>
<!-- Generator: Adobe Illustrator 19.0.0, SVG Export Plug-In . SVG Version: 6.00 Build 0)  -->
<svg version="1.1" id="Layer_1" xmlns="http://www.w3.org/2000/svg" xmlns:xlink="http://www.w3.org/1999/xlink" x="0px" y="0px"
	 viewBox="0 0 511.999 511.999" style="enable-background:new 0 0 511.999 511.999;" xml:space="preserve">
<path style="fill:#F8F9FD;" d="M377.082,469.525L37.897,262.199L461.012,37.466L377.082,469.525z M138.483,265.237l203.341,124.291
	L392.14,130.51L138.483,265.237z"/>
<circle style="fill:#B5EEF8;" cx="88.186" cy="263.714" r="60.482"/>
<path style="fill:#FFFFFF;" d="M27.703,263.718c0,33.406,27.081,60.485,60.485,60.485V203.232
	C54.784,203.232,27.703,230.312,27.703,263.718z"/>
<path style="fill:#FFC002;" d="M88.189,351.907C39.562,351.907,0,312.345,0,263.718c0-48.628,39.562-88.19,88.189-88.19
	s88.189,39.562,88.189,88.19C176.379,312.345,136.817,351.907,88.189,351.907z M88.189,230.935
	c-18.076,0-32.782,14.707-32.782,32.783S70.113,296.5,88.189,296.5s32.782-14.706,32.782-32.782S106.266,230.935,88.189,230.935z"/>
<path style="fill:#FFF076;" d="M55.407,263.718c0-18.077,14.706-32.783,32.782-32.783v-55.407C39.562,175.528,0,215.09,0,263.718
	c0,48.627,39.562,88.189,88.189,88.189V296.5C70.113,296.5,55.407,281.795,55.407,263.718z"/>
<circle style="fill:#B5EEF8;" cx="423.807" cy="90.18" r="60.482"/>
<path style="fill:#FFFFFF;" d="M363.325,90.182c0,33.406,27.081,60.485,60.485,60.485V29.696
	C390.405,29.696,363.325,56.777,363.325,90.182z"/>
<path style="fill:#01A275;" d="M423.81,178.372c-48.627,0-88.189-39.562-88.189-88.189c0-48.628,39.562-88.19,88.189-88.19
	s88.189,39.562,88.189,88.19C512,138.809,472.438,178.372,423.81,178.372z M423.81,57.4c-18.077,0-32.782,14.706-32.782,32.783
	s14.706,32.782,32.782,32.782c18.076,0,32.782-14.706,32.782-32.782S441.887,57.4,423.81,57.4z"/>
<path style="fill:#00CC99;" d="M391.028,90.183c0-18.077,14.706-32.783,32.782-32.783V1.993c-48.627,0-88.189,39.562-88.189,88.19
	c0,48.627,39.562,88.189,88.189,88.189v-55.407C405.734,122.965,391.028,108.259,391.028,90.183z"/>
<circle style="fill:#B5EEF8;" cx="363.713" cy="421.812" r="60.482"/>
<path style="fill:#FFFFFF;" d="M303.224,421.817c0,33.406,27.081,60.485,60.485,60.485V361.332
	C330.304,361.332,303.224,388.411,303.224,421.817z"/>
<path style="fill:#EA3F7B;" d="M363.71,510.006c-48.627,0-88.189-39.562-88.189-88.189c0-48.628,39.562-88.19,88.189-88.19
	s88.189,39.562,88.189,88.19C451.899,470.444,412.338,510.006,363.71,510.006z M363.71,389.034
	c-18.077,0-32.782,14.706-32.782,32.783s14.706,32.782,32.782,32.782s32.782-14.706,32.782-32.782S381.786,389.034,363.71,389.034z"
	/>
<path style="fill:#FF7FAB;" d="M330.927,421.817c0-18.077,14.706-32.783,32.782-32.783v-55.407
	c-48.627,0-88.189,39.562-88.189,88.19c0,48.627,39.562,88.189,88.189,88.189v-55.407
	C345.633,454.599,330.927,439.894,330.927,421.817z"/>
</svg>
