<svg xmlns="http://www.w3.org/2000/svg" xmlns:xlink="http://www.w3.org/1999/xlink" xmlns:v="https://vecta.io/nano" viewBox="0 0 236 236"><style><![CDATA[.B{fill:#f9da7e}.C{fill:#fcebbb}.D{fill:#fbe197}]]></style><path d="M0 0v236h236V0H0z" fill="none"/><path d="M115 12v1h7l-7-1m-11.333 1.333l.666.333-.666-.333z" class="C"/><path d="M105 13l1 1-1-1z" class="D"/><use xlink:href="#B" class="B"/><path d="M135 119h-18c3.511-16.734 23.745-25.143 33.772-7.999 8.504 14.542-5.177 33.311-17.772 39.865-20.292 10.56-45.774-2.797-50.482-24.866C76.552 98.039 101.896 69.086 129 66.174c23.512-2.526 47.261 11.604 55.882 33.826 14.022 36.147-12.548 77.101-47.882 87.561-22.53 6.67-47.018.725-65-14.026C27.598 137.11 46.488 69.239 88 39.428c22.123-15.887 44.988-17.5 71-17.428-8.12-5.391-19.494-7.017-29-8.155C91.355 9.218 51.761 26.658 29.746 59 3.613 97.393 5.99 151.056 35.465 187c59.197 72.189 183.306 33.183 187.575-61 .514-11.33.066-22.105-3.734-33-3.649-10.462-9.274-19.683-16.594-27.996C153.394 8.996 59.819 53.092 65.09 125c3.997 54.525 85.241 63.394 102.161 12 4.354-13.226 4.453-28.7-4.63-39.999-15.311-19.049-46.229-16.195-58.092 4.999-4.908 8.768-7.055 21.941.8 29.66 11.43 11.231 28.423 1.525 29.671-12.66z" fill="#f7c945"/><use xlink:href="#B" x="21" class="B"/><use xlink:href="#B" x="23" class="D"/><path d="M131 13l1 1-1-1m-34.333 1.333l.667.333-.667-.333z" class="C"/><path d="M98 14l1 1-1-1z" class="D"/><path d="M99.667 14.333l.666.333-.666-.333M135 14l1 1-1-1z" class="B"/><path d="M136 14l1 1-1-1z" class="D"/><path d="M137 14l1 1-1-1m-45 1l1 1-1-1z" class="C"/><path d="M93 15l1 1-1-1z" class="D"/><path d="M94 15l1 1-1-1m46 0l1 1-1-1z" class="B"/><path d="M141 15l1 1-1-1z" class="D"/><path d="M142 15l1 1-1-1m-53.333 1.333l.667.333-.667-.333z" class="C"/><path d="M90 16l1 1-1-1m54 0l1 1-1-1z" class="B"/><path d="M145.667 16.333l.666.333-.666-.333M85 17l1 1-1-1z" class="C"/><path d="M86 17l1 1-1-1z" class="B"/><path d="M148 17l1 1-1-1z" class="D"/><path d="M149 17l1 1-1-1m-67 1l1 1-1-1z" class="C"/><path d="M83 18l1 1-1-1z" class="B"/><path d="M151 18l1 1-1-1z" class="D"/><path d="M152 18l1 1-1-1m-73 1l1 1-1-1z" class="C"/><path d="M80 19l1 1-1-1m74 0l1 1-1-1m-77 1l1 1-1-1z" class="D"/><path d="M78 20l1 1-1-1m78 0l1 1-1-1z" class="B"/><path d="M157 20l1 1-1-1m-83 1l1 1-1-1z" class="C"/><path d="M75 21l1 1-1-1m64 0v1h4l-4-1z" class="B"/><path d="M143 21v1h4l-4-1z" class="D"/><path d="M147 21v1h4l-4-1z" class="B"/><path d="M159 21l1 1-1-1z" class="D"/><path d="M72 22l1 1-1-1z" class="C"/><path d="M73 22l1 1-1-1m56 0l1 1-1-1z" class="B"/><use xlink:href="#B" x="24" y="9" class="D"/><path d="M132 22l1 1-1-1m23.667.333l.666.333-.666-.333z" class="C"/><path d="M157 22l1 1-1-1z" class="D"/><use xlink:href="#B" x="52" y="9" class="B"/><path d="M160 22l1 1-1-1z" fill="#f7c945"/><path d="M161 22l1 1-1-1z" class="B"/><path d="M70 23l1 1-1-1z" class="C"/><path d="M71 23l1 1-1-1m52 0l1 1-1-1z" class="B"/><path d="M124 23l1 1-1-1z" class="D"/><path d="M125.667 23.333l.666.333-.666-.333m37 0l.666.333-.666-.333M68 24l1 1-1-1z" class="C"/><path d="M69 24l1 1-1-1m50 0l1 1-1-1z" class="B"/><path d="M120 24l1 1-1-1z" class="D"/><path d="M121 24l1 1-1-1m-55 1l1 1-1-1z" class="C"/><path d="M67 25l1 1-1-1z" class="B"/><path d="M116 25l1 1-1-1z" class="D"/><path d="M117 25l1 1-1-1z" class="C"/><path d="M65 26l1 1-1-1z" class="B"/><path d="M113 26l1 1-1-1m-50 1l1 1-1-1z" class="D"/><path d="M110 27l1 1-1-1z" class="B"/><path d="M111 27l1 1-1-1m-50 1l1 1-1-1z" class="C"/><path d="M107 28l1 1-1-1z" class="B"/><path d="M108 28l1 1-1-1z" class="C"/><path d="M60 29l1 1-1-1z" class="B"/><path d="M105 29l1 1-1-1z" class="D"/><path d="M58 30l1 1-1-1z" class="C"/><path d="M103 30l1 1-1-1z" class="D"/><path d="M57 31l1 1-1-1z" class="B"/><path d="M101 31l1 1-1-1m-46 1l1 1-1-1m44 0l1 1-1-1z" class="C"/><path d="M54 33l1 1-1-1z" class="D"/><path d="M97 33l1 1-1-1z" class="C"/><path d="M53 34l1 1-1-1z" class="B"/><path d="M95 34l1 1-1-1z" class="D"/><path d="M51 35l1 1-1-1z" class="C"/><path d="M93 35l1 1-1-1z" class="B"/><path d="M94 35l1 1-1-1z" class="C"/><path d="M50 36l1 1-1-1z" class="D"/><path d="M92 36l1 1-1-1z" class="C"/><path d="M49 37l1 1-1-1m41 0l1 1-1-1m-42 1l1 1-1-1z" class="B"/><path d="M89 38l1 1-1-1z" class="C"/><path d="M87 39l1 1-1-1z" class="B"/><path d="M135 39v1h5l-5-1z" class="C"/><path d="M140 39v1h3l-3-1z" class="D"/><path d="M143 39v1h3l-3-1z" class="B"/><path d="M146 39v1h3l-3-1z" class="D"/><path d="M149 39v1h4l-4-1z" class="C"/><path d="M86 40l1 1-1-1z" class="D"/><path d="M129 40l1 1-1-1z" class="C"/><use xlink:href="#B" x="24" y="27" class="D"/><path d="M132 40l1 1-1-1m23.667.333l.666.333-.666-.333z" class="B"/><path d="M157 40l1 1-1-1z" class="D"/><path d="M158.667 40.333l.666.333-.666-.333M44 41l1 1-1-1m41 0l1 1-1-1m40 0l1 1-1-1z" class="C"/><path d="M126 41l1 1-1-1m35 0l1 1-1-1z" class="B"/><path d="M162 41l1 1-1-1z" class="D"/><path d="M163 41l1 1-1-1M43 42l1 1-1-1z" class="C"/><path d="M83 42l1 1-1-1z" class="B"/><path d="M121 42l1 1-1-1z" class="C"/><path d="M122 42l1 1-1-1m43 0l1 1-1-1z" class="B"/><path d="M166 42l1 1-1-1z" class="D"/><path d="M42 43l1 1-1-1z" class="C"/><path d="M82 43l1 1-1-1z" class="D"/><path d="M118 43l1 1-1-1z" class="C"/><path d="M119 43l1 1-1-1m49 0l1 1-1-1z" class="B"/><path d="M169 43l1 1-1-1z" class="D"/><path d="M41 44l1 1-1-1m40 0l1 1-1-1m34 0l1 1-1-1z" class="C"/><path d="M116 44l1 1-1-1m55 0l1 1-1-1z" class="B"/><path d="M172 44l1 1-1-1z" class="D"/><path d="M40 45l1 1-1-1m40 0l1 1-1-1z" class="C"/><path d="M113 45l1 1-1-1z" class="D"/><path d="M174 45l1 1-1-1z" class="B"/><path d="M175 45l1 1-1-1M39 46l1 1-1-1m40 0l1 1-1-1m31 0l1 1-1-1z" class="C"/><path d="M111 46l1 1-1-1m65 0l1 1-1-1z" class="B"/><path d="M177 46l1 1-1-1m-69 1l1 1-1-1z" class="C"/><path d="M109 47l1 1-1-1z" class="B"/><path d="M179 47l1 1-1-1z" class="C"/><path d="M76 48l1 1-1-1z" class="B"/><path d="M106 48l1 1-1-1z" class="C"/><path d="M107 48l1 1-1-1z" class="B"/><path d="M181 48l1 1-1-1z" class="C"/><path d="M37 49l1 1-1-1m38 0l1 1-1-1m30 0l1 1-1-1m77 0l1 1-1-1z" class="B"/><path d="M183 49l1 1-1-1z" class="C"/><path d="M36 50l1 1-1-1m38 0l1 1-1-1z" class="B"/><path d="M103 50l1 1-1-1z" class="D"/><path d="M184 50l1 1-1-1M35 51l1 1-1-1m38 0l1 1-1-1z" class="B"/><path d="M101 51l1 1-1-1z" class="C"/><path d="M186 51l1 1-1-1z" class="D"/><path d="M34 52l1 1-1-1z" class="C"/><path d="M100 52l1 1-1-1m87 0l1 1-1-1z" class="B"/><path d="M33 53l1 1-1-1m65 0l1 1-1-1m91 0l1 1-1-1M71 54l1 1-1-1z" class="C"/><path d="M97 54l1 1-1-1z" class="D"/><path d="M190 54l1 1-1-1M32 55l1 1-1-1z" class="B"/><path d="M70 55l1 1-1-1z" class="C"/><path d="M96 55l1 1-1-1z" class="B"/><path d="M192 55l1 1-1-1M31 56l1 1-1-1m38 0l1 1-1-1m25 0l1 1-1-1z" class="C"/><path d="M193 56l1 1-1-1z" class="D"/><path d="M30 57l1 1-1-1z" class="C"/><path d="M68 57l1 1-1-1m25 0l1 1-1-1z" class="D"/><path d="M194 57l1 1-1-1M67 58l1 1-1-1m25 0l1 1-1-1m103 0l1 1-1-1M29 59l1 1-1-1m62 0l1 1-1-1z" class="B"/><path d="M197 59l1 1-1-1M28 60l1 1-1-1m38 0l1 1-1-1z" class="C"/><path d="M90 60l1 1-1-1z" class="B"/><path d="M198 60l1 1-1-1z" class="C"/><path d="M65 61l1 1-1-1z" class="D"/><path d="M199 61l1 1-1-1z" class="C"/><path d="M27 62l1 1-1-1z" class="D"/><path d="M64 62l1 1-1-1z" class="B"/><path d="M87 62l1 1-1-1m113 0l1 1-1-1m1 1l1 1-1-1z" class="C"/><path d="M26 64l1 1-1-1z" class="B"/><path d="M63 64l1 1-1-1m139 0l1 1-1-1M25 65l1 1-1-1z" class="C"/><path d="M62 65l1 1-1-1m23 0l1 1-1-1z" class="B"/><path d="M203 65l1 1-1-1z" class="C"/><path d="M84 66l1 1-1-1m42.667.333l.666.333-.666-.333z" class="B"/><use xlink:href="#B" x="22" y="53" class="D"/><path d="M130 66v1h3l-3-1m8 0v1h3l-3-1z" class="C"/><path d="M141 66l1 1-1-1z" class="D"/><use xlink:href="#B" x="36" y="53" class="B"/><path d="M24 67l1 1-1-1z" class="D"/><path d="M61 67l1 1-1-1z" class="C"/><path d="M83 67l1 1-1-1z" class="B"/><path d="M122 67l1 1-1-1z" class="D"/><path d="M123 67l1 1-1-1z" class="C"/><path d="M147 67l1 1-1-1z" class="D"/><path d="M148 67l1 1-1-1m56 0l1 1-1-1M60 68l1 1-1-1z" class="B"/><path d="M82 68l1 1-1-1m37 0l1 1-1-1z" class="D"/><path d="M120 68l1 1-1-1m30 0l1 1-1-1z" class="C"/><path d="M151 68l1 1-1-1m54 0l1 1-1-1M23 69l1 1-1-1z" class="B"/><path d="M60 69l1 1-1-1m21 0l1 1-1-1z" class="C"/><path d="M115 69l1 1-1-1z" class="B"/><path d="M116 69l1 1-1-1z" class="D"/><path d="M153 69l1 1-1-1z" class="C"/><path d="M154 69l1 1-1-1z" class="B"/><path d="M206 69l1 1-1-1M59 70l1 1-1-1z" class="D"/><path d="M113 70l1 1-1-1z" class="B"/><path d="M156 70l1 1-1-1m51 0l1 1-1-1z" class="C"/><path d="M22 71l1 1-1-1z" class="D"/><path d="M80 71l1 1-1-1m31 0l1 1-1-1z" class="B"/><path d="M112 71l1 1-1-1z" class="C"/><path d="M158 71l1 1-1-1z" class="D"/><path d="M58 72l1 1-1-1z" class="C"/><path d="M79 72l1 1-1-1z" class="D"/><path d="M109 72l1 1-1-1z" class="B"/><path d="M110 72l1 1-1-1z" class="C"/><path d="M160 72l1 1-1-1z" class="D"/><path d="M208 72l1 1-1-1z" class="B"/><path d="M21 73l1 1-1-1z" class="D"/><path d="M78 73l1 1-1-1m30 0l1 1-1-1z" class="C"/><path d="M162 73l1 1-1-1z" class="B"/><path d="M209 73l1 1-1-1z" class="D"/><path d="M57 74l1 1-1-1m49 0l1 1-1-1m57 0l1 1-1-1z" class="C"/><path d="M164 74l1 1-1-1z" class="B"/><path d="M210 74l1 1-1-1z" class="C"/><path d="M20 75l1 1-1-1z" class="D"/><path d="M77 75l1 1-1-1m27 0l1 1-1-1z" class="B"/><path d="M165 75l1 1-1-1M56 76l1 1-1-1m20 0l1 1-1-1z" class="C"/><path d="M103 76l1 1-1-1z" class="B"/><path d="M166 76l1 1-1-1z" class="C"/><path d="M211 76l1 1-1-1M19 77l1 1-1-1z" class="D"/><path d="M102 77l1 1-1-1z" class="C"/><path d="M55 78l1 1-1-1m20 0l1 1-1-1z" class="D"/><path d="M101 78l1 1-1-1z" class="C"/><path d="M169 78l1 1-1-1m43 0l1 1-1-1z" class="B"/><path d="M18 79l1 1-1-1z" class="C"/><path d="M170 79l1 1-1-1z" class="D"/><path d="M213 79l1 1-1-1z" class="C"/><path d="M18 80l1 1-1-1z" class="B"/><path d="M54 80l1 1-1-1z" class="D"/><path d="M74 80l1 1-1-1m24 0l1 1-1-1z" class="B"/><path d="M171 80l1 1-1-1m-98 1l1 1-1-1z" class="C"/><path d="M97 81l1 1-1-1z" class="B"/><path d="M172 81l1 1-1-1m42 0l1 1-1-1M17 82l1 1-1-1z" class="C"/><path d="M53 82l1 1-1-1m20 0l1 1-1-1m23 0l1 1-1-1z" class="B"/><path d="M173 82l1 1-1-1z" class="C"/><path d="M17 83l1 1-1-1z" class="B"/><path d="M53 83l1 1-1-1m19 0l1 1-1-1m62 0v1h3l-3-1z" class="C"/><path d="M174 83l1 1-1-1m41 0l1 1-1-1z" class="D"/><path d="M72 84l1 1-1-1z" class="B"/><path d="M127 84l1 1-1-1z" class="C"/><path d="M128.667 84.333l.666.333-.666-.333m12 0l.666.333-.666-.333z" class="B"/><path d="M142 84l1 1-1-1z" class="D"/><path d="M143 84l1 1-1-1z" class="C"/><path d="M175 84l1 1-1-1z" class="B"/><path d="M16 85l1 1-1-1z" class="C"/><path d="M52 85l1 1-1-1z" class="D"/><path d="M71 85l1 1-1-1m23 0l1 1-1-1m29 0l1 1-1-1z" class="C"/><path d="M124 85l1 1-1-1z" class="D"/><path d="M125 85l1 1-1-1m20 0l1 1-1-1z" class="B"/><path d="M146 85l1 1-1-1z" class="C"/><path d="M176 85l1 1-1-1z" class="B"/><path d="M216 85l1 1-1-1z" class="C"/><path d="M16 86l1 1-1-1z" class="B"/><path d="M52 86l1 1-1-1z" class="C"/><path d="M71 86l1 1-1-1z" class="B"/><path d="M93 86l1 1-1-1m28 0l1 1-1-1z" class="D"/><path d="M148 86l1 1-1-1z" class="B"/><path d="M149 86l1 1-1-1m-79 1l1 1-1-1z" class="C"/><path d="M92 87l1 1-1-1z" class="B"/><path d="M119 87l1 1-1-1z" class="D"/><path d="M150 87l1 1-1-1z" class="B"/><path d="M151 87l1 1-1-1m26 0l1 1-1-1m40 0l1 1-1-1M15 88l1 1-1-1z" class="C"/><path d="M51 88l1 1-1-1z" class="D"/><path d="M70 88l1 1-1-1m21 0l1 1-1-1z" class="B"/><path d="M117 88l1 1-1-1z" class="C"/><path d="M152 88l1 1-1-1z" class="B"/><path d="M178 88l1 1-1-1z" class="C"/><path d="M217 88l1 1-1-1M15 89l1 1-1-1z" class="B"/><path d="M115 89l1 1-1-1z" class="C"/><path d="M154 89l1 1-1-1m25 0l1 1-1-1z" class="D"/><path d="M218 89l1 1-1-1z" class="C"/><path d="M50 90l1 1-1-1z" class="B"/><path d="M69 90l1 1-1-1z" class="C"/><path d="M90 90l1 1-1-1m24 0l1 1-1-1m104 0l1 1-1-1z" class="D"/><path d="M14 91l1 1-1-1z" class="C"/><path d="M50 91l1 1-1-1z" class="D"/><path d="M69 91l1 1-1-1m44 0l1 1-1-1z" class="B"/><path d="M157 91l1 1-1-1z" class="C"/><path d="M180 91l1 1-1-1M14 92l1 1-1-1z" class="D"/><path d="M50 92l1 1-1-1m39 0l1 1-1-1z" class="C"/><path d="M112 92l1 1-1-1z" class="B"/><path d="M158 92l1 1-1-1m61 0l1 1-1-1z" class="C"/><path d="M14 93l1 1-1-1z" class="B"/><path d="M68 93l1 1-1-1m42 0l1 1-1-1z" class="C"/><path d="M159 93l1 1-1-1z" class="B"/><path d="M181 93l1 1-1-1z" class="C"/><path d="M219 93l1 1-1-1M49 94l1 1-1-1m19 0l1 1-1-1z" class="B"/><path d="M88 94l1 1-1-1m21 0l1 1-1-1z" class="C"/><path d="M160 94l1 1-1-1z" class="B"/><path d="M13 95l1 1-1-1z" class="C"/><path d="M49 95l1 1-1-1z" class="D"/><path d="M87 95l1 1-1-1z" class="B"/><path d="M161 95l1 1-1-1z" class="D"/><path d="M182 95l1 1-1-1m38 0l1 1-1-1z" class="C"/><path d="M13 96l1 1-1-1z" class="D"/><path d="M49 96l1 1-1-1m18 0l1 1-1-1m20 0l1 1-1-1z" class="C"/><path d="M108 96l1 1-1-1z" class="B"/><path d="M162 96l1 1-1-1z" class="C"/><path d="M183 96l1 1-1-1m37 0l1 1-1-1M13 97l1 1-1-1m54 0l1 1-1-1m19 0l1 1-1-1m21 0l1 1-1-1z" class="B"/><path d="M163 97l1 1-1-1m20 0l1 1-1-1z" class="C"/><path d="M48 98l1 1-1-1z" class="B"/><path d="M86 98l1 1-1-1z" class="C"/><path d="M106 98l1 1-1-1z" class="D"/><path d="M184 98l1 1-1-1z" class="B"/><path d="M48 99l1 1-1-1z" class="D"/><path d="M66.333 99.667l.333.666-.333-.666M105 99l1 1-1-1z" class="C"/><path d="M164 99l1 1-1-1z" class="B"/><path d="M184 99l1 1-1-1m37 0l1 1-1-1m-208.667 1.667l.333.666-.333-.666m36 0l.333.666-.333-.666z" class="C"/><path d="M85 100l1 1-1-1z" class="D"/><path d="M105 100l1 1-1-1z" class="B"/><path d="M165 100l1 1-1-1z" class="C"/><path d="M221 100l1 1-1-1m-155 1l1 1-1-1z" class="B"/><path d="M85 101l1 1-1-1m19 0l1 1-1-1z" class="C"/><use xlink:href="#C" class="B"/><use xlink:href="#C" x="2" class="D"/><path d="M135 101l1 1-1-1z" class="C"/><use xlink:href="#C" x="5" class="D"/><path d="M138 101l1 1-1-1m27 0l1 1-1-1m20 0l1 1-1-1z" class="B"/><path d="M12 102l1 1-1-1z" class="D"/><path d="M128 102l1 1-1-1z" class="B"/><path d="M129 102l1 1-1-1m11 0l1 1-1-1z" class="C"/><path d="M141 102l1 1-1-1z" class="D"/><path d="M166 102l1 1-1-1z" class="C"/><path d="M185 102l1 1-1-1z" class="D"/><use xlink:href="#D" class="B"/><use xlink:href="#D" x="53" class="C"/><path d="M84 103l1 1-1-1m19 0l1 1-1-1z" class="D"/><path d="M126 103l1 1-1-1z" class="B"/><path d="M127 103l1 1-1-1z" class="C"/><path d="M143 103l1 1-1-1z" class="D"/><path d="M222 103l1 1-1-1z" class="C"/><path d="M47 104l1 1-1-1z" class="B"/><path d="M84 104l1 1-1-1m41 0l1 1-1-1z" class="C"/><path d="M145 104l1 1-1-1z" class="B"/><path d="M167 104l1 1-1-1m55 0l1 1-1-1m-175 1l1 1-1-1m18 0l1 1-1-1m37 0l1 1-1-1m44 0l1 1-1-1m40 0l1 1-1-1z" class="D"/><path d="M222 105l1 1-1-1z" class="B"/><use xlink:href="#D" x="35" y="3" class="C"/><path d="M65.333 106.667l.333.666-.333-.666M83 106l1 1-1-1m19 0l1 1-1-1m20 0l1 1-1-1z" class="B"/><path d="M147 106l1 1-1-1m21 0l1 1-1-1m18 0l1 1-1-1m-174.667 1.667l.333.666-.333-.666M83 107l1 1-1-1z" class="C"/><path d="M148 107l1 1-1-1m20 0l1 1-1-1z" class="D"/><path d="M101 108l1 1-1-1z" class="C"/><path d="M149 108l1 1-1-1m38 0l1 1-1-1z" class="B"/><path d="M11 109v3h1l-1-3z" class="D"/><path d="M101 109l1 1-1-1z" class="B"/><path d="M120 109l1 1-1-1m49 0l1 1-1-1z" class="C"/><path d="M187 109l1 1-1-1z" class="D"/><path d="M223.333 109.667l.334.666-.334-.666M64 110v4h1l-1-4z" class="C"/><path d="M119 110l1 1-1-1z" class="B"/><path d="M150 110l1 1-1-1z" class="C"/><path d="M169 110l1 1-1-1z" class="D"/><path d="M187 110v3h1l-1-3z" class="C"/><use xlink:href="#D" x="70" y="8" class="B"/><path d="M100 111l1 1-1-1m19 0l1 1-1-1z" class="C"/><path d="M151 111l1 1-1-1m18 0l1 1-1-1z" class="B"/><path d="M223 111l1 1-1-1z" class="D"/><path d="M11 112v5h1l-1-5z" class="B"/><path d="M100 112l1 1-1-1z" class="D"/><path d="M118 112l1 1-1-1z" class="B"/><path d="M151 112l1 1-1-1z" class="C"/><path d="M223 112v4h1l-1-4m-177 1v4h1l-1-4z" class="B"/><use xlink:href="#D" x="70" y="10" class="D"/><path d="M100.333 113.667l.334.666-.334-.666z" class="B"/><path d="M118 113l1 1-1-1m-54 1v3h1l-1-3z" class="D"/><path d="M152 114l1 1-1-1z" class="B"/><path d="M170 114v3h1l-1-3m-87.667 1.667l.333.666-.333-.666M152 115v3h1l-1-3z" class="C"/><path d="M117.333 116.667l.334.666-.334-.666m71 0l.334.666-.334-.666z" class="B"/><path d="M46 117v4h1l-1-4z" class="D"/><path d="M64 117v3h1l-1-3z" class="B"/><path d="M170 117l1 1-1-1z" class="D"/><use xlink:href="#D" x="87" y="15" class="C"/><path d="M117 118l1 1-1-1z" class="D"/><path d="M170.333 118.667l.334.666-.334-.666z" class="B"/><path d="M188 118v3h1l-1-3m-123.667 2.667l.333.666-.333-.666m106 0l.334.666-.334-.666z" class="D"/><path d="M11 121v5h1l-1-5m35 0v4h1l-1-4z" class="B"/><path d="M82 121v3h1l-1-3m70.333.667l.334.666-.334-.666z" class="C"/><path d="M188 121v4h1l-1-4m35 0v5h1l-1-5z" class="B"/><path d="M64 122v3h1l-1-3m106.333.667l.334.666-.334-.666z" class="C"/><path d="M100 123l1 1-1-1m34 0l1 1-1-1z" class="B"/><path d="M152.333 123.667l.334.666-.334-.666M82 124l1 1-1-1z" class="D"/><path d="M100 124l1 1-1-1m34 0l1 1-1-1z" class="C"/><path d="M82.333 125.667l.333.666-.333-.666m70 0l.334.666-.334-.666z" class="B"/><path d="M11 126v3h1l-1-3z" class="D"/><path d="M101 126l1 1-1-1z" class="B"/><path d="M133 126l1 1-1-1m90 0v3h1l-1-3z" class="D"/><use xlink:href="#D" x="35" y="25" class="C"/><use xlink:href="#D" x="53" y="25" class="B"/><path d="M83 128l1 1-1-1z" class="C"/><path d="M102 128l1 1-1-1m30 0l1 1-1-1z" class="D"/><path d="M151 128l1 1-1-1z" class="C"/><path d="M169.333 128.667l.334.666-.334-.666z" class="B"/><path d="M187.333 128.667l.334.666-.334-.666M11 129v3h1l-1-3z" class="C"/><path d="M83 129l1 1-1-1m20 0l1 1-1-1m28 0l1 1-1-1m20 0l1 1-1-1z" class="B"/><path d="M223.333 129.667l.334.666-.334-.666z" class="C"/><path d="M47 130l1 1-1-1z" class="D"/><path d="M65 130l1 1-1-1m104 0l1 1-1-1z" class="C"/><path d="M187 130l1 1-1-1z" class="D"/><use xlink:href="#D" x="35" y="28" class="B"/><path d="M84 131l1 1-1-1m20 0l1 1-1-1m26 0l1 1-1-1m20 0l1 1-1-1z" class="C"/><path d="M187 131l1 1-1-1m-121 1l1 1-1-1m18 0l1 1-1-1z" class="B"/><path d="M105 132l1 1-1-1m24 0l1 1-1-1z" class="C"/><path d="M150 132l1 1-1-1m18 0l1 1-1-1z" class="B"/><path d="M66 133l1 1-1-1z" class="D"/><path d="M107 133l1 1-1-1m20 0l1 1-1-1z" class="B"/><path d="M168 133l1 1-1-1z" class="D"/><path d="M12 134l1 1-1-1z" class="B"/><path d="M48 134l1 1-1-1m18 0l1 1-1-1z" class="C"/><path d="M85 134l1 1-1-1z" class="B"/><path d="M108 134l1 1-1-1m18 0l1 1-1-1z" class="C"/><path d="M149 134l1 1-1-1z" class="B"/><path d="M168 134l1 1-1-1m18 0l1 1-1-1z" class="C"/><path d="M222 134l1 1-1-1z" class="B"/><path d="M12 135l1 1-1-1m36 0l1 1-1-1z" class="D"/><path d="M86 135l1 1-1-1m24 0l1 1-1-1z" class="C"/><path d="M111 135l1 1-1-1m12 0l1 1-1-1z" class="B"/><path d="M124 135l1 1-1-1m24 0l1 1-1-1z" class="C"/><path d="M186 135l1 1-1-1m36 0l1 1-1-1z" class="D"/><use xlink:href="#D" y="33" class="C"/><path d="M48 136l1 1-1-1z" class="B"/><path d="M67 136l1 1-1-1z" class="D"/><path d="M86 136l1 1-1-1z" class="B"/><path d="M113 136l1 1-1-1z" class="C"/><path d="M114 136l1 1-1-1z" class="D"/><path d="M115.667 136.333l.666.334-.666-.334m3 0l.666.334-.666-.334z" class="B"/><path d="M120 136l1 1-1-1z" class="D"/><path d="M121 136l1 1-1-1z" class="C"/><path d="M148 136l1 1-1-1z" class="B"/><path d="M167 136l1 1-1-1z" class="D"/><path d="M186 136l1 1-1-1z" class="B"/><path d="M222.333 136.667l.334.666-.334-.666M67 137l1 1-1-1m20 0l1 1-1-1m60 0l1 1-1-1m20 0l1 1-1-1m-118 1l1 1-1-1z" class="C"/><path d="M87 138l1 1-1-1m60 0l1 1-1-1z" class="B"/><path d="M185 138l1 1-1-1z" class="C"/><path d="M49 139l1 1-1-1z" class="D"/><path d="M68 139l1 1-1-1z" class="B"/><path d="M88 139l1 1-1-1m58 0l1 1-1-1z" class="D"/><path d="M166 139l1 1-1-1z" class="B"/><path d="M185 139l1 1-1-1z" class="D"/><path d="M13 140l1 1-1-1m36 0l1 1-1-1z" class="B"/><path d="M68 140l1 1-1-1m21 0l1 1-1-1m56 0l1 1-1-1z" class="C"/><path d="M185 140l1 1-1-1m36 0l1 1-1-1z" class="B"/><path d="M13 141l1 1-1-1z" class="D"/><path d="M69 141l1 1-1-1z" class="B"/><path d="M144 141l1 1-1-1z" class="C"/><path d="M165 141l1 1-1-1z" class="B"/><path d="M184 141l1 1-1-1z" class="C"/><path d="M221 141l1 1-1-1z" class="D"/><path d="M13 142l1 1-1-1z" class="C"/><path d="M50 142l1 1-1-1m134 0l1 1-1-1z" class="D"/><path d="M221 142l1 1-1-1z" class="C"/><path d="M70 143l1 1-1-1z" class="D"/><path d="M91 143l1 1-1-1m52 0l1 1-1-1z" class="B"/><path d="M164 143l1 1-1-1z" class="D"/><path d="M14 144l1 1-1-1z" class="B"/><path d="M51 144l1 1-1-1z" class="C"/><path d="M92 144l1 1-1-1m50 0l1 1-1-1z" class="B"/><path d="M183 144l1 1-1-1z" class="C"/><path d="M220 144l1 1-1-1z" class="B"/><path d="M14 145l1 1-1-1z" class="D"/><path d="M51 145l1 1-1-1z" class="B"/><path d="M71 145l1 1-1-1z" class="D"/><path d="M93 145l1 1-1-1m48 0l1 1-1-1z" class="B"/><path d="M163 145l1 1-1-1z" class="D"/><path d="M183 145l1 1-1-1z" class="B"/><path d="M220 145l1 1-1-1z" class="D"/><path d="M14 146l1 1-1-1m81 0l1 1-1-1m44 0l1 1-1-1m81 0l1 1-1-1m-168 1l1 1-1-1m20 0l1 1-1-1m24 0l1 1-1-1m42 0l1 1-1-1m24 0l1 1-1-1z" class="C"/><path d="M182 147l1 1-1-1z" class="D"/><path d="M15 148l1 1-1-1m58 0l1 1-1-1z" class="B"/><path d="M97 148l1 1-1-1m40 0l1 1-1-1z" class="D"/><path d="M161 148l1 1-1-1m58 0l1 1-1-1z" class="B"/><path d="M15 149l1 1-1-1z" class="D"/><path d="M53 149l1 1-1-1m20 0l1 1-1-1m26 0l1 1-1-1m36 0l1 1-1-1m46 0l1 1-1-1z" class="C"/><path d="M219 149l1 1-1-1z" class="D"/><path d="M15 150l1 1-1-1m59 0l1 1-1-1m27 0l1 1-1-1m32 0l1 1-1-1m27 0l1 1-1-1m59 0l1 1-1-1m-165 1l1 1-1-1z" class="C"/><path d="M75 151l1 1-1-1z" class="D"/><path d="M102 151l1 1-1-1z" class="B"/><path d="M103 151l1 1-1-1m28 0l1 1-1-1z" class="C"/><path d="M132 151l1 1-1-1z" class="B"/><path d="M159 151l1 1-1-1m21 0l1 1-1-1z" class="C"/><path d="M16 152l1 1-1-1z" class="D"/><path d="M76 152l1 1-1-1z" class="B"/><path d="M105 152l1 1-1-1z" class="D"/><path d="M106 152l1 1-1-1m22 0l1 1-1-1z" class="C"/><path d="M129 152l1 1-1-1z" class="D"/><path d="M158 152l1 1-1-1z" class="B"/><path d="M218 152l1 1-1-1z" class="D"/><path d="M16 153l1 1-1-1m39 0l1 1-1-1z" class="C"/><path d="M77 153l1 1-1-1m31 0l1 1-1-1z" class="B"/><path d="M109 153l1 1-1-1m16 0l1 1-1-1z" class="C"/><path d="M126 153l1 1-1-1m31 0l1 1-1-1z" class="B"/><path d="M179 153l1 1-1-1z" class="C"/><path d="M17 154l1 1-1-1m96.667.333l.666.334-.666-.334z" class="B"/><use xlink:href="#C" x="-16" y="53" class="D"/><path d="M117 154l1 1-1-1z" class="C"/><use xlink:href="#C" x="-13" y="53" class="D"/><path d="M120.667 154.333l.666.334-.666-.334M217 154l1 1-1-1z" class="B"/><path d="M17 155l1 1-1-1z" class="D"/><path d="M56 155l1 1-1-1z" class="B"/><path d="M78 155l1 1-1-1m78 0l1 1-1-1z" class="C"/><path d="M178 155l1 1-1-1z" class="B"/><path d="M217 155l1 1-1-1m-160 1l1 1-1-1m22 0l1 1-1-1m76 0l1 1-1-1m22 0l1 1-1-1z" class="C"/><path d="M18 157l1 1-1-1m39 0l1 1-1-1z" class="B"/><path d="M80 157l1 1-1-1m74 0l1 1-1-1z" class="C"/><path d="M216 157l1 1-1-1z" class="B"/><path d="M18 158l1 1-1-1m40 0l1 1-1-1z" class="C"/><path d="M176 158l1 1-1-1z" class="D"/><path d="M216 158l1 1-1-1m-157 1l1 1-1-1z" class="C"/><path d="M83 159l1 1-1-1m68 0l1 1-1-1z" class="B"/><path d="M175 159l1 1-1-1z" class="C"/><path d="M19 160l1 1-1-1z" class="B"/><path d="M84 160l1 1-1-1m66 0l1 1-1-1m65 0l1 1-1-1z" class="D"/><path d="M60 161l1 1-1-1z" class="B"/><path d="M85 161l1 1-1-1m64 0l1 1-1-1z" class="C"/><path d="M174 161l1 1-1-1m-154 1l1 1-1-1z" class="B"/><path d="M61 162l1 1-1-1m25 0l1 1-1-1m62 0l1 1-1-1m25 0l1 1-1-1z" class="C"/><path d="M214 162l1 1-1-1z" class="B"/><path d="M20 163l1 1-1-1z" class="C"/><path d="M88 163l1 1-1-1m58 0l1 1-1-1z" class="B"/><path d="M172 163l1 1-1-1z" class="C"/><path d="M21 164l1 1-1-1z" class="B"/><path d="M89 164l1 1-1-1z" class="C"/><path d="M90 164l1 1-1-1m54 0l1 1-1-1z" class="B"/><path d="M145 164l1 1-1-1z" class="C"/><path d="M213 164l1 1-1-1z" class="B"/><path d="M21 165l1 1-1-1z" class="C"/><path d="M63 165l1 1-1-1z" class="B"/><path d="M91 165l1 1-1-1z" class="C"/><path d="M142 165l1 1-1-1z" class="B"/><path d="M143 165l1 1-1-1z" class="C"/><path d="M171 165l1 1-1-1z" class="B"/><path d="M213 165l1 1-1-1z" class="C"/><path d="M22 166l1 1-1-1m42 0l1 1-1-1z" class="B"/><path d="M93 166l1 1-1-1m48 0l1 1-1-1z" class="C"/><path d="M170 166l1 1-1-1m42 0l1 1-1-1z" class="B"/><path d="M22 167l1 1-1-1z" class="C"/><path d="M65 167l1 1-1-1z" class="B"/><path d="M95 167l1 1-1-1z" class="D"/><path d="M139 167l1 1-1-1z" class="C"/><path d="M169 167l1 1-1-1z" class="B"/><path d="M212 167l1 1-1-1z" class="C"/><path d="M23 168l1 1-1-1z" class="B"/><path d="M66 168l1 1-1-1z" class="D"/><path d="M97 168l1 1-1-1z" class="C"/><path d="M98 168l1 1-1-1m38 0l1 1-1-1z" class="B"/><path d="M137 168l1 1-1-1z" class="C"/><path d="M168 168l1 1-1-1z" class="D"/><path d="M211 168l1 1-1-1z" class="B"/><path d="M23 169l1 1-1-1z" class="C"/><path d="M67 169l1 1-1-1z" class="D"/><path d="M100 169l1 1-1-1z" class="C"/><path d="M101 169l1 1-1-1m32 0l1 1-1-1z" class="B"/><path d="M134 169l1 1-1-1z" class="C"/><path d="M167 169l1 1-1-1z" class="D"/><path d="M211 169l1 1-1-1z" class="C"/><path d="M24 170l1 1-1-1z" class="B"/><path d="M68 170l1 1-1-1z" class="D"/><path d="M103 170l1 1-1-1z" class="C"/><path d="M104 170l1 1-1-1m26 0l1 1-1-1z" class="D"/><path d="M131 170l1 1-1-1z" class="C"/><path d="M166 170l1 1-1-1z" class="D"/><path d="M210 170l1 1-1-1m-141 1l1 1-1-1z" class="B"/><path d="M106 171v1h3l-3-1z" class="C"/><path d="M109 171l1 1-1-1z" class="D"/><path d="M110.667 171.333l.666.334-.666-.334m13 0l.666.334-.666-.334z" class="B"/><path d="M125 171l1 1-1-1z" class="D"/><path d="M126 171v1h3l-3-1z" class="C"/><path d="M165 171l1 1-1-1z" class="B"/><path d="M25 172l1 1-1-1z" class="D"/><path d="M70 172l1 1-1-1z" class="B"/><path d="M116 172v1h3l-3-1z" class="C"/><path d="M164 172l1 1-1-1z" class="B"/><path d="M209 172l1 1-1-1z" class="D"/><path d="M71 173l1 1-1-1m92 0l1 1-1-1z" class="B"/><path d="M26 174l1 1-1-1m47 0l1 1-1-1m88 0l1 1-1-1m47 0l1 1-1-1z" class="C"/><path d="M27 175l1 1-1-1z" class="B"/><path d="M74 175l1 1-1-1m86 0l1 1-1-1z" class="D"/><path d="M207 175l1 1-1-1m-132 1l1 1-1-1m84 0l1 1-1-1z" class="B"/><path d="M28 177l1 1-1-1z" class="D"/><path d="M77 177l1 1-1-1m80 0l1 1-1-1m49 0l1 1-1-1z" class="C"/><path d="M29 178l1 1-1-1z" class="B"/><path d="M78 178l1 1-1-1z" class="D"/><path d="M156 178l1 1-1-1m49 0l1 1-1-1z" class="B"/><path d="M29 179l1 1-1-1m51 0l1 1-1-1m74 0l1 1-1-1m-124 1l1 1-1-1z" class="C"/><path d="M81 180l1 1-1-1m72 0l1 1-1-1z" class="B"/><path d="M204 180l1 1-1-1z" class="C"/><path d="M31 181l1 1-1-1z" class="B"/><path d="M83 181l1 1-1-1m68 0l1 1-1-1z" class="D"/><path d="M203 181l1 1-1-1z" class="B"/><path d="M85 182l1 1-1-1m64 0l1 1-1-1z" class="D"/><path d="M32 183l1 1-1-1z" class="C"/><path d="M87 183l1 1-1-1z" class="D"/><path d="M147 183l1 1-1-1z" class="B"/><path d="M33 184l1 1-1-1z" class="C"/><path d="M89 184l1 1-1-1z" class="B"/><path d="M90 184l1 1-1-1m54 0l1 1-1-1z" class="C"/><path d="M145 184l1 1-1-1z" class="B"/><path d="M201 184l1 1-1-1z" class="C"/><path d="M34 185l1 1-1-1z" class="B"/><path d="M92 185l1 1-1-1m50 0l1 1-1-1z" class="D"/><path d="M200 185l1 1-1-1m-106 1l1 1-1-1z" class="B"/><path d="M95 186l1 1-1-1m44 0l1 1-1-1z" class="C"/><path d="M140 186l1 1-1-1m-43 1l1 1-1-1z" class="B"/><path d="M98 187l1 1-1-1z" class="D"/><path d="M99 187l1 1-1-1m36 0l1 1-1-1z" class="C"/><path d="M136 187l1 1-1-1z" class="D"/><path d="M137 187l1 1-1-1z" class="B"/><path d="M36 188l1 1-1-1z" class="C"/><path d="M101 188l1 1-1-1z" class="B"/><path d="M102 188l1 1-1-1z" class="D"/><path d="M103 188l1 1-1-1m28 0l1 1-1-1z" class="C"/><path d="M132 188l1 1-1-1z" class="D"/><path d="M133 188l1 1-1-1z" class="B"/><path d="M198 188l1 1-1-1m-161 1l1 1-1-1z" class="C"/><use xlink:href="#C" x="-25" y="88" class="B"/><path d="M108 189l1 1-1-1z" class="D"/><path d="M109 189v1h3l-3-1m14 0v1h3l-3-1z" class="C"/><path d="M126 189l1 1-1-1z" class="D"/><use xlink:href="#C" x="-4" y="88" class="B"/><path d="M197 189l1 1-1-1m-159 1l1 1-1-1m158 0l1 1-1-1m-157 1l1 1-1-1m156 0l1 1-1-1z" class="C"/><path d="M40 192l1 1-1-1m154 0l1 1-1-1m-153 1l1 1-1-1m152 0l1 1-1-1z" class="D"/><path d="M42 194l1 1-1-1m150 0l1 1-1-1z" class="B"/><path d="M43 195l1 1-1-1m148 0l1 1-1-1m-147 1l1 1-1-1m146 0l1 1-1-1z" class="D"/><path d="M45 197l1 1-1-1m144 0l1 1-1-1m-143 1l1 1-1-1m142 0l1 1-1-1m-141 1l1 1-1-1m140 0l1 1-1-1m-139 1l1 1-1-1z" class="C"/><path d="M50 201l1 1-1-1m134 0l1 1-1-1z" class="B"/><path d="M51 202l1 1-1-1m132 0l1 1-1-1z" class="D"/><path d="M52 203l1 1-1-1m130 0l1 1-1-1z" class="C"/><path d="M54 204l1 1-1-1m126 0l1 1-1-1z" class="B"/><path d="M55 205l1 1-1-1m124 0l1 1-1-1z" class="D"/><path d="M56 206l1 1-1-1m122 0l1 1-1-1z" class="C"/><path d="M58 207l1 1-1-1m118 0l1 1-1-1z" class="B"/><path d="M59 208l1 1-1-1m116 0l1 1-1-1z" class="C"/><path d="M61 209l1 1-1-1m112 0l1 1-1-1z" class="D"/><path d="M62 210l1 1-1-1z" class="C"/><path d="M63 210l1 1-1-1m108 0l1 1-1-1z" class="B"/><path d="M64 211l1 1-1-1m106 0l1 1-1-1z" class="C"/><path d="M66 212l1 1-1-1m102 0l1 1-1-1m-100 1l1 1-1-1m98 0l1 1-1-1m-96 1l1 1-1-1m94 0l1 1-1-1m-92 1l1 1-1-1m90 0l1 1-1-1m-88 1l1 1-1-1z" class="D"/><path d="M160 216l1 1-1-1m-84 1l1 1-1-1z" class="C"/><path d="M77 217l1 1-1-1m80 0l1 1-1-1z" class="B"/><path d="M158 217l1 1-1-1z" class="C"/><path d="M79 218l1 1-1-1m76 0l1 1-1-1z" class="D"/><path d="M81 219l1 1-1-1z" class="C"/><path d="M82 219l1 1-1-1m70 0l1 1-1-1z" class="D"/><path d="M153 219l1 1-1-1m-69 1l1 1-1-1z" class="C"/><path d="M85 220l1 1-1-1m64 0l1 1-1-1z" class="B"/><path d="M150 220l1 1-1-1m-63 1l1 1-1-1z" class="C"/><path d="M88 221l1 1-1-1z" class="D"/><path d="M89 221l1 1-1-1m56 0l1 1-1-1z" class="B"/><path d="M146 221l1 1-1-1z" class="D"/><path d="M147 221l1 1-1-1m-56 1l1 1-1-1z" class="C"/><path d="M92 222l1 1-1-1z" class="D"/><path d="M93 222l1 1-1-1m48 0l1 1-1-1z" class="B"/><path d="M142 222l1 1-1-1z" class="D"/><path d="M143 222l1 1-1-1m-48 1l1 1-1-1z" class="C"/><path d="M96 223l1 1-1-1z" class="D"/><path d="M97.667 223.333l.667.334-.667-.334m39 0l.666.334-.666-.334z" class="B"/><path d="M138 223l1 1-1-1z" class="D"/><path d="M139 223l1 1-1-1m-37.333 1.333l.666.334-.666-.334z" class="C"/><path d="M103 224l1 1-1-1z" class="D"/><path d="M104 224l1 1-1-1m26 0l1 1-1-1z" class="B"/><path d="M131 224l1 1-1-1z" class="D"/><path d="M132.667 224.333l.666.334-.666-.334M109 225v1h6l-6-1z" class="C"/><path d="M115 225v1h5l-5-1z" class="D"/><path d="M120 225v1h6l-6-1z" class="C"/><defs><path id="B" d="M106.667 13.333l.666.333-.666-.333z"/><path id="C" d="M131.667 101.333l.666.334-.666-.334z"/><path id="D" d="M12.333 103.667l.333.666-.333-.666z"/></defs></svg>
